<svg width="1208" height="142" viewBox="0 0 1208 142" fill="none" xmlns="http://www.w3.org/2000/svg">
<path d="M122.748 94.3069L106.15 139.418L35.686 3.69806L33.6758 0L74.2812 0.106144" fill="white"/>
<path d="M165.181 0H134.199V142H165.181V0Z" fill="white"/>
<path d="M26.7985 141.723H0.523438V81.779C0.523438 81.779 0.524017 55.1074 0.524017 53.4409H30.9802V141.723" fill="white"/>
<path d="M15.4909 32.2727C24.0462 32.2727 30.9817 25.0482 30.9817 16.1364C30.9817 7.2245 24.0462 0 15.4909 0C6.9355 0 0 7.2245 0 16.1364C0 25.0482 6.9355 32.2727 15.4909 32.2727Z" fill="white"/>
<path fill-rule="evenodd" clip-rule="evenodd" d="M1160.76 23.8361H1168.83L1207.88 116.934H1193.72L1181.42 87.3111H1147.93L1135.63 116.934H1121.84L1160.76 23.8361ZM1164.62 47.001C1164.41 47.511 1164.21 48.0035 1164 48.4784C1164 48.4868 1163.99 48.4952 1163.99 48.5036L1152.9 75.3179H1176.44L1165.37 48.6351C1165.11 48.0689 1164.86 47.5241 1164.62 47.001Z" fill="white"/>
<path fill-rule="evenodd" clip-rule="evenodd" d="M1103.85 24.4333H1116.68V116.934H1103.85V24.4333Z" fill="white"/>
<path fill-rule="evenodd" clip-rule="evenodd" d="M1013.34 24.4417C1021.54 23.8786 1029.83 23.5972 1038.19 23.5972C1052.13 23.5972 1064.01 27.9788 1073.57 36.845C1083.25 45.7524 1087.96 57.8335 1087.96 72.6546C1087.96 80.1183 1086.75 86.8835 1084.23 92.8827C1081.81 98.7626 1078.38 103.606 1073.88 107.291L1073.87 107.3L1073.86 107.31C1064.93 114.508 1053.87 118.009 1040.93 118.009C1032.77 118.009 1023.55 117.565 1013.28 116.682L1010.03 116.403V24.6685L1013.34 24.4417ZM1022.86 36.3236V105.05C1027.52 105.451 1033.53 105.658 1040.93 105.658C1051.5 105.658 1059.59 102.825 1065.56 97.4843C1071.43 92.2305 1074.65 84.1439 1074.65 72.5352C1074.65 61.083 1071.08 52.3263 1064.19 45.8581L1064.18 45.8518L1064.17 45.8455C1057.24 39.2724 1048.66 35.9488 1038.19 35.9488C1032.45 35.9488 1027.35 36.0747 1022.86 36.3236Z" fill="white"/>
<path fill-rule="evenodd" clip-rule="evenodd" d="M949.691 24.4333H996.444V36.546H962.521V60.8648H993.219V72.858H962.521V104.821H997.758V116.934H949.691V24.4333Z" fill="white"/>
<path fill-rule="evenodd" clip-rule="evenodd" d="M847.451 23.7167H856.167L883.696 89.1437C883.775 89.3174 883.854 89.4907 883.932 89.6635C884.01 89.5017 884.089 89.3376 884.169 89.1712C884.173 89.1637 884.176 89.1562 884.18 89.1487L914.863 23.7167H923.395L937.487 116.934H924.315L915.086 52.6829L887.125 112.515H879.268L854.89 53.494L845.275 116.934H832.195L847.451 23.7167ZM854.778 38.7136L852.913 34.2799L852.144 38.9783L854.778 38.7136Z" fill="white"/>
<path fill-rule="evenodd" clip-rule="evenodd" d="M741.609 24.4333H754.439V104.583H793.737V116.934H741.609V24.4333Z" fill="white"/>
<path fill-rule="evenodd" clip-rule="evenodd" d="M689.276 23.8361H697.342L736.391 116.934H722.237L709.934 87.3111H676.447L664.144 116.934H650.355L689.276 23.8361ZM693.134 47.001C692.928 47.5096 692.722 48.0009 692.517 48.4747C692.513 48.4843 692.508 48.4939 692.504 48.5036L681.416 75.3179H704.957L693.881 48.6343C693.621 48.0684 693.372 47.5238 693.134 47.001Z" fill="white"/>
<path fill-rule="evenodd" clip-rule="evenodd" d="M579.242 24.8012C586.857 24.2402 593.281 23.9555 598.495 23.9555C607.248 23.9555 614.766 26.2404 620.771 31.0575C627.001 35.9721 629.994 42.9619 629.994 51.5124C629.994 57.4291 628.25 62.9361 624.843 67.9577C622.377 71.5906 619.65 74.7105 616.648 77.2808C619.161 80.6987 622.088 84.6044 625.431 88.9997C629.784 94.539 632.523 97.9301 633.725 99.288C638.091 103.927 644.5 106.73 647 106L642 117.5C636.867 117.416 637.813 117.049 634.194 115.43L634.159 115.415L634.124 115.398C630.649 113.752 627.406 111.328 624.38 108.215L624.362 108.196L624.344 108.178C621.538 105.207 614.932 96.5546 604.691 82.5289C599.016 82.5018 593.713 82.3459 588.784 82.0596V116.934H575.955V25.0435L579.242 24.8012ZM588.784 36.4574V70.2609C593.838 70.527 598.587 70.6594 603.034 70.6594C604.952 70.6594 607.794 69.349 611.575 64.9628C615.006 60.9829 616.687 56.468 616.687 51.2735C616.687 46.0259 614.971 42.5632 611.895 40.2559L611.864 40.233L611.834 40.2093C608.568 37.6479 604.002 36.1876 597.778 36.1876C595.136 36.1876 592.139 36.2768 588.784 36.4574Z" fill="white"/>
<path fill-rule="evenodd" clip-rule="evenodd" d="M492.945 36.9267C501.461 27.6323 512.423 23 525.538 23C535.494 23 545.539 24.6603 555.661 27.9518L559.034 29.0488L555.313 40.4986L551.991 39.502C542.721 36.721 533.908 35.3515 525.538 35.3515C516.072 35.3515 508.538 38.6953 502.636 45.38C496.653 52.155 493.61 60.4929 493.61 70.624C493.61 80.5379 496.997 88.8331 503.812 95.7209C510.623 102.605 518.83 106.016 528.643 106.016C536.455 106.016 542.926 105.071 548.149 103.29V67.0761H560.978V110.343L559.301 111.384C551.587 116.172 541.123 118.367 528.285 118.367C514.955 118.367 503.538 113.757 494.254 104.559L494.242 104.547C484.966 95.2709 480.303 83.8922 480.303 70.624C480.303 57.3902 484.488 46.0776 492.945 36.9267Z" fill="white"/>
<path fill-rule="evenodd" clip-rule="evenodd" d="M424.98 24.4333H471.733V36.546H437.81V60.8648H468.508V72.858H437.81V104.821H473.047V116.934H424.98V24.4333Z" fill="white"/>
<path fill-rule="evenodd" clip-rule="evenodd" d="M346.602 24.4333H417.243V36.546H388.337V116.934H375.508V36.546H346.602V24.4333Z" fill="white"/>
<path fill-rule="evenodd" clip-rule="evenodd" d="M258.809 23.7167H266.604L323.941 89.8193L323.958 89.8392C324.694 90.7129 325.398 91.5541 326.071 92.3628C326.062 91.5421 326.057 90.7062 326.057 89.855V24.4333H338.887V117.651H331.093L272.709 50.3881C272.707 50.3857 272.705 50.3833 272.703 50.3809C272.315 49.9385 271.939 49.5093 271.576 49.0933L271.638 51.7096V116.934H258.809V23.7167Z" fill="white"/>
<path fill-rule="evenodd" clip-rule="evenodd" d="M225.182 24.4333H238.011V116.934H225.182V24.4333Z" fill="white"/>
</svg>
